<mxfile host="app.diagrams.net" agent="Mozilla/5.0 (Macintosh; Intel Mac OS X 10_15_7) AppleWebKit/605.1.15 (KHTML, like Gecko) Version/18.1.1 Safari/605.1.15" version="25.0.3">
  <diagram name="페이지-1" id="KFHJLUHOkolM2Zw2U5iB">
    <mxGraphModel dx="1559" dy="867" grid="0" gridSize="10" guides="1" tooltips="1" connect="1" arrows="1" fold="1" page="1" pageScale="1" pageWidth="1169" pageHeight="827" math="0" shadow="0">
      <root>
        <mxCell id="0" />
        <mxCell id="1" style="" parent="0" />
        <mxCell id="kmTeTLYLAvfmaprUT5JL-31" value="" style="shape=mxgraph.mockup.containers.marginRect;rectMarginTop=10;strokeColor=#CCCCCC;strokeWidth=1;dashed=0;rounded=1;arcSize=5;recursiveResize=0;html=1;whiteSpace=wrap;" vertex="1" parent="1">
          <mxGeometry x="107" y="112" width="973" height="238" as="geometry" />
        </mxCell>
        <mxCell id="kmTeTLYLAvfmaprUT5JL-32" value="&amp;nbsp; Remote" style="shape=rect;strokeColor=none;fillColor=#CCCCCC;strokeWidth=1;dashed=0;rounded=1;arcSize=36;fontColor=#FFFFFF;fontSize=17;spacing=2;spacingTop=-2;align=left;autosize=1;spacingLeft=4;resizeWidth=0;resizeHeight=0;perimeter=none;html=1;whiteSpace=wrap;" vertex="1" parent="kmTeTLYLAvfmaprUT5JL-31">
          <mxGeometry y="10" width="89" height="28" as="geometry" />
        </mxCell>
        <mxCell id="kmTeTLYLAvfmaprUT5JL-34" value="" style="sketch=0;outlineConnect=0;dashed=0;verticalLabelPosition=bottom;verticalAlign=top;align=center;html=1;fontSize=12;fontStyle=0;aspect=fixed;pointerEvents=1;shape=mxgraph.aws4.git_repository;" vertex="1" parent="kmTeTLYLAvfmaprUT5JL-31">
          <mxGeometry x="3" y="17.129999999999995" width="10.57" height="13.75" as="geometry" />
        </mxCell>
        <mxCell id="kmTeTLYLAvfmaprUT5JL-40" value="" style="shape=mxgraph.mockup.containers.marginRect;rectMarginTop=10;strokeColor=#CCCCCC;strokeWidth=1;dashed=0;rounded=1;arcSize=5;recursiveResize=0;html=1;whiteSpace=wrap;" vertex="1" parent="1">
          <mxGeometry x="103" y="464" width="973" height="222" as="geometry" />
        </mxCell>
        <mxCell id="kmTeTLYLAvfmaprUT5JL-41" value="&amp;nbsp; Local" style="shape=rect;strokeColor=none;fillColor=#CCCCCC;strokeWidth=1;dashed=0;rounded=1;arcSize=36;fontColor=#FFFFFF;fontSize=17;spacing=2;spacingTop=-2;align=left;autosize=1;spacingLeft=4;resizeWidth=0;resizeHeight=0;perimeter=none;html=1;whiteSpace=wrap;" vertex="1" parent="kmTeTLYLAvfmaprUT5JL-40">
          <mxGeometry y="10" width="70" height="28" as="geometry" />
        </mxCell>
        <mxCell id="kmTeTLYLAvfmaprUT5JL-42" value="" style="sketch=0;outlineConnect=0;dashed=0;verticalLabelPosition=bottom;verticalAlign=top;align=center;html=1;fontSize=12;fontStyle=0;aspect=fixed;pointerEvents=1;shape=mxgraph.aws4.git_repository;" vertex="1" parent="kmTeTLYLAvfmaprUT5JL-40">
          <mxGeometry x="3" y="17.129999999999995" width="10.57" height="13.75" as="geometry" />
        </mxCell>
        <mxCell id="kmTeTLYLAvfmaprUT5JL-78" style="edgeStyle=orthogonalEdgeStyle;rounded=0;orthogonalLoop=1;jettySize=auto;html=1;entryX=0.5;entryY=0;entryDx=0;entryDy=0;fontColor=#0066CC;strokeColor=#007FFF;" edge="1" parent="1">
          <mxGeometry relative="1" as="geometry">
            <mxPoint x="379.0344827586207" y="255.0000000000001" as="sourcePoint" />
            <mxPoint x="378.5" y="559" as="targetPoint" />
          </mxGeometry>
        </mxCell>
        <mxCell id="kmTeTLYLAvfmaprUT5JL-79" value="Pull" style="edgeLabel;html=1;align=center;verticalAlign=middle;resizable=0;points=[];fontSize=17;" vertex="1" connectable="0" parent="kmTeTLYLAvfmaprUT5JL-78">
          <mxGeometry x="-0.0082" y="2" relative="1" as="geometry">
            <mxPoint as="offset" />
          </mxGeometry>
        </mxCell>
        <mxCell id="kmTeTLYLAvfmaprUT5JL-65" value="그룹" style="" parent="0" />
        <mxCell id="kmTeTLYLAvfmaprUT5JL-132" value="" style="fillColor=none;strokeColor=#147EBA;dashed=1;verticalAlign=top;fontStyle=0;fontColor=#147EBA;whiteSpace=wrap;html=1;" vertex="1" parent="kmTeTLYLAvfmaprUT5JL-65">
          <mxGeometry x="295" y="220" width="168" height="35" as="geometry" />
        </mxCell>
        <mxCell id="kmTeTLYLAvfmaprUT5JL-133" value="" style="fillColor=none;strokeColor=#147EBA;dashed=1;verticalAlign=top;fontStyle=0;fontColor=#147EBA;whiteSpace=wrap;html=1;" vertex="1" parent="kmTeTLYLAvfmaprUT5JL-65">
          <mxGeometry x="299" y="559" width="159" height="35" as="geometry" />
        </mxCell>
        <mxCell id="kmTeTLYLAvfmaprUT5JL-136" style="edgeStyle=orthogonalEdgeStyle;rounded=0;orthogonalLoop=1;jettySize=auto;html=1;entryX=0.5;entryY=0;entryDx=0;entryDy=0;strokeColor=#97D077;" edge="1" parent="kmTeTLYLAvfmaprUT5JL-65" source="kmTeTLYLAvfmaprUT5JL-134" target="kmTeTLYLAvfmaprUT5JL-135">
          <mxGeometry relative="1" as="geometry" />
        </mxCell>
        <mxCell id="kmTeTLYLAvfmaprUT5JL-137" value="Pull" style="edgeLabel;html=1;align=center;verticalAlign=middle;resizable=0;points=[];" vertex="1" connectable="0" parent="kmTeTLYLAvfmaprUT5JL-136">
          <mxGeometry x="0.1248" y="-2" relative="1" as="geometry">
            <mxPoint as="offset" />
          </mxGeometry>
        </mxCell>
        <mxCell id="kmTeTLYLAvfmaprUT5JL-134" value="" style="fillColor=none;strokeColor=#97D077;dashed=1;verticalAlign=top;fontStyle=0;fontColor=#B3FF66;whiteSpace=wrap;html=1;" vertex="1" parent="kmTeTLYLAvfmaprUT5JL-65">
          <mxGeometry x="742" y="164" width="248" height="89" as="geometry" />
        </mxCell>
        <mxCell id="kmTeTLYLAvfmaprUT5JL-135" value="" style="fillColor=none;strokeColor=#97D077;dashed=1;verticalAlign=top;fontStyle=0;fontColor=#B3FF66;whiteSpace=wrap;html=1;" vertex="1" parent="kmTeTLYLAvfmaprUT5JL-65">
          <mxGeometry x="742" y="508" width="248" height="89" as="geometry" />
        </mxCell>
        <mxCell id="kmTeTLYLAvfmaprUT5JL-17" value="Git commit" style="" parent="0" />
        <mxCell id="kmTeTLYLAvfmaprUT5JL-39" style="edgeStyle=orthogonalEdgeStyle;rounded=0;orthogonalLoop=1;jettySize=auto;html=1;entryX=1;entryY=0.5;entryDx=0;entryDy=0;" edge="1" parent="kmTeTLYLAvfmaprUT5JL-17" source="kmTeTLYLAvfmaprUT5JL-18" target="kmTeTLYLAvfmaprUT5JL-38">
          <mxGeometry relative="1" as="geometry" />
        </mxCell>
        <mxCell id="kmTeTLYLAvfmaprUT5JL-18" value="" style="ellipse;whiteSpace=wrap;html=1;aspect=fixed;fillColor=#d5e8d4;strokeColor=#82b366;" vertex="1" parent="kmTeTLYLAvfmaprUT5JL-17">
          <mxGeometry x="292" y="175" width="20" height="20" as="geometry" />
        </mxCell>
        <mxCell id="kmTeTLYLAvfmaprUT5JL-19" value="main(master)" style="text;html=1;align=center;verticalAlign=middle;whiteSpace=wrap;rounded=0;fontSize=11;" vertex="1" parent="kmTeTLYLAvfmaprUT5JL-17">
          <mxGeometry x="127" y="172" width="116" height="30" as="geometry" />
        </mxCell>
        <mxCell id="kmTeTLYLAvfmaprUT5JL-20" style="edgeStyle=orthogonalEdgeStyle;rounded=0;orthogonalLoop=1;jettySize=auto;html=1;entryX=0.5;entryY=1;entryDx=0;entryDy=0;" edge="1" parent="kmTeTLYLAvfmaprUT5JL-17" source="kmTeTLYLAvfmaprUT5JL-21" target="kmTeTLYLAvfmaprUT5JL-18">
          <mxGeometry relative="1" as="geometry" />
        </mxCell>
        <mxCell id="kmTeTLYLAvfmaprUT5JL-21" value="" style="ellipse;whiteSpace=wrap;html=1;aspect=fixed;fillColor=#dae8fc;strokeColor=#6c8ebf;" vertex="1" parent="kmTeTLYLAvfmaprUT5JL-17">
          <mxGeometry x="334" y="225" width="20" height="20" as="geometry" />
        </mxCell>
        <mxCell id="kmTeTLYLAvfmaprUT5JL-22" style="edgeStyle=orthogonalEdgeStyle;rounded=0;orthogonalLoop=1;jettySize=auto;html=1;entryX=1;entryY=0.5;entryDx=0;entryDy=0;" edge="1" parent="kmTeTLYLAvfmaprUT5JL-17" source="kmTeTLYLAvfmaprUT5JL-23" target="kmTeTLYLAvfmaprUT5JL-21">
          <mxGeometry relative="1" as="geometry" />
        </mxCell>
        <mxCell id="kmTeTLYLAvfmaprUT5JL-23" value="" style="ellipse;whiteSpace=wrap;html=1;aspect=fixed;fillColor=#dae8fc;strokeColor=#6c8ebf;" vertex="1" parent="kmTeTLYLAvfmaprUT5JL-17">
          <mxGeometry x="380" y="225" width="20" height="20" as="geometry" />
        </mxCell>
        <mxCell id="kmTeTLYLAvfmaprUT5JL-24" style="edgeStyle=orthogonalEdgeStyle;rounded=0;orthogonalLoop=1;jettySize=auto;html=1;entryX=1;entryY=0.5;entryDx=0;entryDy=0;" edge="1" parent="kmTeTLYLAvfmaprUT5JL-17" source="kmTeTLYLAvfmaprUT5JL-25" target="kmTeTLYLAvfmaprUT5JL-23">
          <mxGeometry relative="1" as="geometry" />
        </mxCell>
        <mxCell id="kmTeTLYLAvfmaprUT5JL-25" value="" style="ellipse;whiteSpace=wrap;html=1;aspect=fixed;fillColor=#0066CC;strokeColor=#6c8ebf;" vertex="1" parent="kmTeTLYLAvfmaprUT5JL-17">
          <mxGeometry x="426" y="225" width="20" height="20" as="geometry" />
        </mxCell>
        <mxCell id="kmTeTLYLAvfmaprUT5JL-38" value="" style="ellipse;whiteSpace=wrap;html=1;aspect=fixed;fillColor=#d5e8d4;strokeColor=#82b366;" vertex="1" parent="kmTeTLYLAvfmaprUT5JL-17">
          <mxGeometry x="249" y="175" width="20" height="20" as="geometry" />
        </mxCell>
        <mxCell id="kmTeTLYLAvfmaprUT5JL-44" style="edgeStyle=orthogonalEdgeStyle;rounded=0;orthogonalLoop=1;jettySize=auto;html=1;entryX=1;entryY=0.5;entryDx=0;entryDy=0;" edge="1" parent="kmTeTLYLAvfmaprUT5JL-17" source="kmTeTLYLAvfmaprUT5JL-45" target="kmTeTLYLAvfmaprUT5JL-46">
          <mxGeometry relative="1" as="geometry" />
        </mxCell>
        <mxCell id="kmTeTLYLAvfmaprUT5JL-45" value="" style="ellipse;whiteSpace=wrap;html=1;aspect=fixed;fillColor=#d5e8d4;strokeColor=#82b366;" vertex="1" parent="kmTeTLYLAvfmaprUT5JL-17">
          <mxGeometry x="279" y="518" width="20" height="20" as="geometry" />
        </mxCell>
        <mxCell id="kmTeTLYLAvfmaprUT5JL-46" value="" style="ellipse;whiteSpace=wrap;html=1;aspect=fixed;fillColor=#d5e8d4;strokeColor=#82b366;" vertex="1" parent="kmTeTLYLAvfmaprUT5JL-17">
          <mxGeometry x="236" y="518" width="20" height="20" as="geometry" />
        </mxCell>
        <mxCell id="kmTeTLYLAvfmaprUT5JL-47" value="Feat/A (PR브랜치)" style="text;html=1;align=center;verticalAlign=middle;whiteSpace=wrap;rounded=0;fontSize=11;" vertex="1" parent="kmTeTLYLAvfmaprUT5JL-17">
          <mxGeometry x="136" y="220" width="116" height="30" as="geometry" />
        </mxCell>
        <mxCell id="kmTeTLYLAvfmaprUT5JL-48" value="main" style="text;html=1;align=center;verticalAlign=middle;whiteSpace=wrap;rounded=0;fontSize=11;" vertex="1" parent="kmTeTLYLAvfmaprUT5JL-17">
          <mxGeometry x="134" y="513" width="58" height="30" as="geometry" />
        </mxCell>
        <mxCell id="kmTeTLYLAvfmaprUT5JL-62" style="edgeStyle=orthogonalEdgeStyle;rounded=0;orthogonalLoop=1;jettySize=auto;html=1;" edge="1" parent="kmTeTLYLAvfmaprUT5JL-17" source="kmTeTLYLAvfmaprUT5JL-49">
          <mxGeometry relative="1" as="geometry">
            <mxPoint x="290" y="584" as="targetPoint" />
          </mxGeometry>
        </mxCell>
        <mxCell id="kmTeTLYLAvfmaprUT5JL-49" value="" style="ellipse;whiteSpace=wrap;html=1;aspect=fixed;fillColor=#FFCC99;strokeColor=#FFB570;" vertex="1" parent="kmTeTLYLAvfmaprUT5JL-17">
          <mxGeometry x="328" y="630.43" width="20" height="20" as="geometry" />
        </mxCell>
        <mxCell id="kmTeTLYLAvfmaprUT5JL-50" style="edgeStyle=orthogonalEdgeStyle;rounded=0;orthogonalLoop=1;jettySize=auto;html=1;entryX=1;entryY=0.5;entryDx=0;entryDy=0;" edge="1" parent="kmTeTLYLAvfmaprUT5JL-17" source="kmTeTLYLAvfmaprUT5JL-51" target="kmTeTLYLAvfmaprUT5JL-49">
          <mxGeometry relative="1" as="geometry" />
        </mxCell>
        <mxCell id="kmTeTLYLAvfmaprUT5JL-51" value="" style="ellipse;whiteSpace=wrap;html=1;aspect=fixed;fillColor=#FFCC99;strokeColor=#FFB570;" vertex="1" parent="kmTeTLYLAvfmaprUT5JL-17">
          <mxGeometry x="374" y="630.43" width="20" height="20" as="geometry" />
        </mxCell>
        <mxCell id="kmTeTLYLAvfmaprUT5JL-55" value="my&amp;nbsp;&lt;div&gt;working branch&lt;/div&gt;" style="text;html=1;align=center;verticalAlign=middle;whiteSpace=wrap;rounded=0;fontSize=11;" vertex="1" parent="kmTeTLYLAvfmaprUT5JL-17">
          <mxGeometry x="143" y="625.43" width="84" height="30" as="geometry" />
        </mxCell>
        <mxCell id="kmTeTLYLAvfmaprUT5JL-56" style="edgeStyle=orthogonalEdgeStyle;rounded=0;orthogonalLoop=1;jettySize=auto;html=1;entryX=0.5;entryY=1;entryDx=0;entryDy=0;" edge="1" parent="kmTeTLYLAvfmaprUT5JL-17" source="kmTeTLYLAvfmaprUT5JL-57" target="kmTeTLYLAvfmaprUT5JL-45">
          <mxGeometry relative="1" as="geometry">
            <mxPoint x="272" y="576" as="targetPoint" />
          </mxGeometry>
        </mxCell>
        <mxCell id="kmTeTLYLAvfmaprUT5JL-57" value="" style="ellipse;whiteSpace=wrap;html=1;aspect=fixed;fillColor=#dae8fc;strokeColor=#6c8ebf;" vertex="1" parent="kmTeTLYLAvfmaprUT5JL-17">
          <mxGeometry x="322" y="566" width="20" height="20" as="geometry" />
        </mxCell>
        <mxCell id="kmTeTLYLAvfmaprUT5JL-58" style="edgeStyle=orthogonalEdgeStyle;rounded=0;orthogonalLoop=1;jettySize=auto;html=1;entryX=1;entryY=0.5;entryDx=0;entryDy=0;" edge="1" parent="kmTeTLYLAvfmaprUT5JL-17" source="kmTeTLYLAvfmaprUT5JL-59" target="kmTeTLYLAvfmaprUT5JL-57">
          <mxGeometry relative="1" as="geometry" />
        </mxCell>
        <mxCell id="kmTeTLYLAvfmaprUT5JL-59" value="" style="ellipse;whiteSpace=wrap;html=1;aspect=fixed;fillColor=#dae8fc;strokeColor=#6c8ebf;" vertex="1" parent="kmTeTLYLAvfmaprUT5JL-17">
          <mxGeometry x="368" y="566" width="20" height="20" as="geometry" />
        </mxCell>
        <mxCell id="kmTeTLYLAvfmaprUT5JL-60" style="edgeStyle=orthogonalEdgeStyle;rounded=0;orthogonalLoop=1;jettySize=auto;html=1;entryX=1;entryY=0.5;entryDx=0;entryDy=0;" edge="1" parent="kmTeTLYLAvfmaprUT5JL-17" source="kmTeTLYLAvfmaprUT5JL-61" target="kmTeTLYLAvfmaprUT5JL-59">
          <mxGeometry relative="1" as="geometry" />
        </mxCell>
        <mxCell id="kmTeTLYLAvfmaprUT5JL-61" value="" style="ellipse;whiteSpace=wrap;html=1;aspect=fixed;fillColor=#0066CC;strokeColor=#6c8ebf;" vertex="1" parent="kmTeTLYLAvfmaprUT5JL-17">
          <mxGeometry x="414" y="566" width="20" height="20" as="geometry" />
        </mxCell>
        <mxCell id="kmTeTLYLAvfmaprUT5JL-63" value="Feat/A" style="text;html=1;align=center;verticalAlign=middle;whiteSpace=wrap;rounded=0;fontSize=11;" vertex="1" parent="kmTeTLYLAvfmaprUT5JL-17">
          <mxGeometry x="108" y="561" width="116" height="30" as="geometry" />
        </mxCell>
        <mxCell id="kmTeTLYLAvfmaprUT5JL-85" style="edgeStyle=orthogonalEdgeStyle;rounded=0;orthogonalLoop=1;jettySize=auto;html=1;entryX=1;entryY=0.5;entryDx=0;entryDy=0;" edge="1" parent="kmTeTLYLAvfmaprUT5JL-17" source="kmTeTLYLAvfmaprUT5JL-86" target="kmTeTLYLAvfmaprUT5JL-93">
          <mxGeometry relative="1" as="geometry" />
        </mxCell>
        <mxCell id="kmTeTLYLAvfmaprUT5JL-86" value="" style="ellipse;whiteSpace=wrap;html=1;aspect=fixed;fillColor=#d5e8d4;strokeColor=#82b366;" vertex="1" parent="kmTeTLYLAvfmaprUT5JL-17">
          <mxGeometry x="791" y="175" width="20" height="20" as="geometry" />
        </mxCell>
        <mxCell id="kmTeTLYLAvfmaprUT5JL-87" style="edgeStyle=orthogonalEdgeStyle;rounded=0;orthogonalLoop=1;jettySize=auto;html=1;entryX=0.5;entryY=1;entryDx=0;entryDy=0;" edge="1" parent="kmTeTLYLAvfmaprUT5JL-17" source="kmTeTLYLAvfmaprUT5JL-88" target="kmTeTLYLAvfmaprUT5JL-86">
          <mxGeometry relative="1" as="geometry" />
        </mxCell>
        <mxCell id="kmTeTLYLAvfmaprUT5JL-88" value="" style="ellipse;whiteSpace=wrap;html=1;aspect=fixed;fillColor=#D5E8D4;strokeColor=#97D077;" vertex="1" parent="kmTeTLYLAvfmaprUT5JL-17">
          <mxGeometry x="825" y="225" width="20" height="20" as="geometry" />
        </mxCell>
        <mxCell id="kmTeTLYLAvfmaprUT5JL-89" style="edgeStyle=orthogonalEdgeStyle;rounded=0;orthogonalLoop=1;jettySize=auto;html=1;entryX=1;entryY=0.5;entryDx=0;entryDy=0;" edge="1" parent="kmTeTLYLAvfmaprUT5JL-17" source="kmTeTLYLAvfmaprUT5JL-90" target="kmTeTLYLAvfmaprUT5JL-88">
          <mxGeometry relative="1" as="geometry" />
        </mxCell>
        <mxCell id="kmTeTLYLAvfmaprUT5JL-90" value="" style="ellipse;whiteSpace=wrap;html=1;aspect=fixed;fillColor=#D5E8D4;strokeColor=#97D077;" vertex="1" parent="kmTeTLYLAvfmaprUT5JL-17">
          <mxGeometry x="875" y="225" width="20" height="20" as="geometry" />
        </mxCell>
        <mxCell id="kmTeTLYLAvfmaprUT5JL-91" style="edgeStyle=orthogonalEdgeStyle;rounded=0;orthogonalLoop=1;jettySize=auto;html=1;entryX=1;entryY=0.5;entryDx=0;entryDy=0;" edge="1" parent="kmTeTLYLAvfmaprUT5JL-17" source="kmTeTLYLAvfmaprUT5JL-92" target="kmTeTLYLAvfmaprUT5JL-90">
          <mxGeometry relative="1" as="geometry" />
        </mxCell>
        <mxCell id="kmTeTLYLAvfmaprUT5JL-92" value="" style="ellipse;whiteSpace=wrap;html=1;aspect=fixed;fillColor=#D5E8D4;strokeColor=#97D077;" vertex="1" parent="kmTeTLYLAvfmaprUT5JL-17">
          <mxGeometry x="925" y="225" width="20" height="20" as="geometry" />
        </mxCell>
        <mxCell id="kmTeTLYLAvfmaprUT5JL-93" value="" style="ellipse;whiteSpace=wrap;html=1;aspect=fixed;fillColor=#d5e8d4;strokeColor=#82b366;" vertex="1" parent="kmTeTLYLAvfmaprUT5JL-17">
          <mxGeometry x="748" y="175" width="20" height="20" as="geometry" />
        </mxCell>
        <mxCell id="kmTeTLYLAvfmaprUT5JL-95" style="edgeStyle=orthogonalEdgeStyle;rounded=0;orthogonalLoop=1;jettySize=auto;html=1;entryX=1;entryY=0.5;entryDx=0;entryDy=0;endArrow=none;endFill=0;" edge="1" parent="kmTeTLYLAvfmaprUT5JL-17" source="kmTeTLYLAvfmaprUT5JL-94" target="kmTeTLYLAvfmaprUT5JL-86">
          <mxGeometry relative="1" as="geometry" />
        </mxCell>
        <mxCell id="kmTeTLYLAvfmaprUT5JL-96" style="edgeStyle=orthogonalEdgeStyle;rounded=0;orthogonalLoop=1;jettySize=auto;html=1;entryX=1;entryY=0.5;entryDx=0;entryDy=0;" edge="1" parent="kmTeTLYLAvfmaprUT5JL-17" source="kmTeTLYLAvfmaprUT5JL-94" target="kmTeTLYLAvfmaprUT5JL-92">
          <mxGeometry relative="1" as="geometry">
            <Array as="points">
              <mxPoint x="965" y="235" />
            </Array>
          </mxGeometry>
        </mxCell>
        <mxCell id="kmTeTLYLAvfmaprUT5JL-94" value="" style="ellipse;whiteSpace=wrap;html=1;aspect=fixed;fillColor=#97D077;strokeColor=#82b366;" vertex="1" parent="kmTeTLYLAvfmaprUT5JL-17">
          <mxGeometry x="955" y="175" width="20" height="20" as="geometry" />
        </mxCell>
        <mxCell id="kmTeTLYLAvfmaprUT5JL-97" style="edgeStyle=orthogonalEdgeStyle;rounded=0;orthogonalLoop=1;jettySize=auto;html=1;entryX=1;entryY=0.5;entryDx=0;entryDy=0;" edge="1" parent="kmTeTLYLAvfmaprUT5JL-17" source="kmTeTLYLAvfmaprUT5JL-98" target="kmTeTLYLAvfmaprUT5JL-105">
          <mxGeometry relative="1" as="geometry" />
        </mxCell>
        <mxCell id="kmTeTLYLAvfmaprUT5JL-98" value="" style="ellipse;whiteSpace=wrap;html=1;aspect=fixed;fillColor=#d5e8d4;strokeColor=#82b366;" vertex="1" parent="kmTeTLYLAvfmaprUT5JL-17">
          <mxGeometry x="794" y="521" width="20" height="20" as="geometry" />
        </mxCell>
        <mxCell id="kmTeTLYLAvfmaprUT5JL-99" style="edgeStyle=orthogonalEdgeStyle;rounded=0;orthogonalLoop=1;jettySize=auto;html=1;entryX=0.5;entryY=1;entryDx=0;entryDy=0;" edge="1" parent="kmTeTLYLAvfmaprUT5JL-17" source="kmTeTLYLAvfmaprUT5JL-100" target="kmTeTLYLAvfmaprUT5JL-98">
          <mxGeometry relative="1" as="geometry" />
        </mxCell>
        <mxCell id="kmTeTLYLAvfmaprUT5JL-100" value="" style="ellipse;whiteSpace=wrap;html=1;aspect=fixed;fillColor=#D5E8D4;strokeColor=#97D077;" vertex="1" parent="kmTeTLYLAvfmaprUT5JL-17">
          <mxGeometry x="828" y="571" width="20" height="20" as="geometry" />
        </mxCell>
        <mxCell id="kmTeTLYLAvfmaprUT5JL-101" style="edgeStyle=orthogonalEdgeStyle;rounded=0;orthogonalLoop=1;jettySize=auto;html=1;entryX=1;entryY=0.5;entryDx=0;entryDy=0;" edge="1" parent="kmTeTLYLAvfmaprUT5JL-17" source="kmTeTLYLAvfmaprUT5JL-102" target="kmTeTLYLAvfmaprUT5JL-100">
          <mxGeometry relative="1" as="geometry" />
        </mxCell>
        <mxCell id="kmTeTLYLAvfmaprUT5JL-102" value="" style="ellipse;whiteSpace=wrap;html=1;aspect=fixed;fillColor=#D5E8D4;strokeColor=#97D077;" vertex="1" parent="kmTeTLYLAvfmaprUT5JL-17">
          <mxGeometry x="878" y="571" width="20" height="20" as="geometry" />
        </mxCell>
        <mxCell id="kmTeTLYLAvfmaprUT5JL-103" style="edgeStyle=orthogonalEdgeStyle;rounded=0;orthogonalLoop=1;jettySize=auto;html=1;entryX=1;entryY=0.5;entryDx=0;entryDy=0;" edge="1" parent="kmTeTLYLAvfmaprUT5JL-17" source="kmTeTLYLAvfmaprUT5JL-104" target="kmTeTLYLAvfmaprUT5JL-102">
          <mxGeometry relative="1" as="geometry" />
        </mxCell>
        <mxCell id="kmTeTLYLAvfmaprUT5JL-104" value="" style="ellipse;whiteSpace=wrap;html=1;aspect=fixed;fillColor=#D5E8D4;strokeColor=#97D077;" vertex="1" parent="kmTeTLYLAvfmaprUT5JL-17">
          <mxGeometry x="928" y="571" width="20" height="20" as="geometry" />
        </mxCell>
        <mxCell id="kmTeTLYLAvfmaprUT5JL-105" value="" style="ellipse;whiteSpace=wrap;html=1;aspect=fixed;fillColor=#d5e8d4;strokeColor=#82b366;" vertex="1" parent="kmTeTLYLAvfmaprUT5JL-17">
          <mxGeometry x="751" y="521" width="20" height="20" as="geometry" />
        </mxCell>
        <mxCell id="kmTeTLYLAvfmaprUT5JL-106" style="edgeStyle=orthogonalEdgeStyle;rounded=0;orthogonalLoop=1;jettySize=auto;html=1;entryX=1;entryY=0.5;entryDx=0;entryDy=0;endArrow=none;endFill=0;" edge="1" parent="kmTeTLYLAvfmaprUT5JL-17" source="kmTeTLYLAvfmaprUT5JL-108" target="kmTeTLYLAvfmaprUT5JL-98">
          <mxGeometry relative="1" as="geometry" />
        </mxCell>
        <mxCell id="kmTeTLYLAvfmaprUT5JL-107" style="edgeStyle=orthogonalEdgeStyle;rounded=0;orthogonalLoop=1;jettySize=auto;html=1;entryX=1;entryY=0.5;entryDx=0;entryDy=0;" edge="1" parent="kmTeTLYLAvfmaprUT5JL-17" source="kmTeTLYLAvfmaprUT5JL-108" target="kmTeTLYLAvfmaprUT5JL-104">
          <mxGeometry relative="1" as="geometry">
            <Array as="points">
              <mxPoint x="968" y="581" />
            </Array>
          </mxGeometry>
        </mxCell>
        <mxCell id="kmTeTLYLAvfmaprUT5JL-108" value="" style="ellipse;whiteSpace=wrap;html=1;aspect=fixed;fillColor=#97D077;strokeColor=#82b366;" vertex="1" parent="kmTeTLYLAvfmaprUT5JL-17">
          <mxGeometry x="958" y="521" width="20" height="20" as="geometry" />
        </mxCell>
        <mxCell id="kmTeTLYLAvfmaprUT5JL-129" style="edgeStyle=orthogonalEdgeStyle;rounded=0;orthogonalLoop=1;jettySize=auto;html=1;" edge="1" parent="kmTeTLYLAvfmaprUT5JL-17" source="kmTeTLYLAvfmaprUT5JL-125" target="kmTeTLYLAvfmaprUT5JL-128">
          <mxGeometry relative="1" as="geometry" />
        </mxCell>
        <mxCell id="kmTeTLYLAvfmaprUT5JL-125" value="Code Review" style="sketch=0;pointerEvents=1;shadow=0;dashed=0;html=1;strokeColor=none;fillColor=#505050;labelPosition=center;verticalLabelPosition=bottom;verticalAlign=top;outlineConnect=0;align=center;shape=mxgraph.office.users.meeting;" vertex="1" parent="kmTeTLYLAvfmaprUT5JL-17">
          <mxGeometry x="502" y="382" width="59" height="38" as="geometry" />
        </mxCell>
        <mxCell id="kmTeTLYLAvfmaprUT5JL-128" value="merge" style="shape=image;html=1;verticalAlign=top;verticalLabelPosition=bottom;labelBackgroundColor=none;imageAspect=0;aspect=fixed;image=https://cdn0.iconfinder.com/data/icons/phosphor-bold-vol-3-1/256/git-merge-duotone-128.png;imageBackground=none;fontColor=#000000;imageBorder=none;" vertex="1" parent="kmTeTLYLAvfmaprUT5JL-17">
          <mxGeometry x="597" y="380" width="40" height="40" as="geometry" />
        </mxCell>
        <mxCell id="kmTeTLYLAvfmaprUT5JL-130" value="main(master)" style="text;html=1;align=center;verticalAlign=middle;whiteSpace=wrap;rounded=0;fontSize=11;" vertex="1" parent="kmTeTLYLAvfmaprUT5JL-17">
          <mxGeometry x="637" y="171" width="116" height="30" as="geometry" />
        </mxCell>
        <mxCell id="kmTeTLYLAvfmaprUT5JL-131" value="main" style="text;html=1;align=center;verticalAlign=middle;whiteSpace=wrap;rounded=0;fontSize=11;" vertex="1" parent="kmTeTLYLAvfmaprUT5JL-17">
          <mxGeometry x="676" y="516" width="62" height="30" as="geometry" />
        </mxCell>
        <mxCell id="kmTeTLYLAvfmaprUT5JL-138" value="my branch" style="text;html=1;align=center;verticalAlign=middle;whiteSpace=wrap;rounded=0;fontSize=11;" vertex="1" parent="kmTeTLYLAvfmaprUT5JL-17">
          <mxGeometry x="657" y="625.43" width="84" height="30" as="geometry" />
        </mxCell>
        <mxCell id="kmTeTLYLAvfmaprUT5JL-139" style="edgeStyle=orthogonalEdgeStyle;rounded=0;orthogonalLoop=1;jettySize=auto;html=1;" edge="1" parent="kmTeTLYLAvfmaprUT5JL-17" source="kmTeTLYLAvfmaprUT5JL-140">
          <mxGeometry relative="1" as="geometry">
            <mxPoint x="804" y="584" as="targetPoint" />
          </mxGeometry>
        </mxCell>
        <mxCell id="kmTeTLYLAvfmaprUT5JL-140" value="" style="ellipse;whiteSpace=wrap;html=1;aspect=fixed;fillColor=#FFCC99;strokeColor=#FFB570;" vertex="1" parent="kmTeTLYLAvfmaprUT5JL-17">
          <mxGeometry x="842" y="630.43" width="20" height="20" as="geometry" />
        </mxCell>
        <mxCell id="kmTeTLYLAvfmaprUT5JL-141" style="edgeStyle=orthogonalEdgeStyle;rounded=0;orthogonalLoop=1;jettySize=auto;html=1;entryX=1;entryY=0.5;entryDx=0;entryDy=0;" edge="1" parent="kmTeTLYLAvfmaprUT5JL-17" source="kmTeTLYLAvfmaprUT5JL-142" target="kmTeTLYLAvfmaprUT5JL-140">
          <mxGeometry relative="1" as="geometry" />
        </mxCell>
        <mxCell id="kmTeTLYLAvfmaprUT5JL-142" value="" style="ellipse;whiteSpace=wrap;html=1;aspect=fixed;fillColor=#FFCC99;strokeColor=#FFB570;" vertex="1" parent="kmTeTLYLAvfmaprUT5JL-17">
          <mxGeometry x="888" y="630.43" width="20" height="20" as="geometry" />
        </mxCell>
        <mxCell id="kmTeTLYLAvfmaprUT5JL-143" value="" style="endArrow=none;dashed=1;html=1;dashPattern=1 3;strokeWidth=2;rounded=0;" edge="1" parent="kmTeTLYLAvfmaprUT5JL-17">
          <mxGeometry width="50" height="50" relative="1" as="geometry">
            <mxPoint x="473" y="753" as="sourcePoint" />
            <mxPoint x="476" y="91" as="targetPoint" />
          </mxGeometry>
        </mxCell>
        <mxCell id="kmTeTLYLAvfmaprUT5JL-144" value="" style="endArrow=none;dashed=1;html=1;dashPattern=1 3;strokeWidth=2;rounded=0;" edge="1" parent="kmTeTLYLAvfmaprUT5JL-17">
          <mxGeometry width="50" height="50" relative="1" as="geometry">
            <mxPoint x="639" y="749" as="sourcePoint" />
            <mxPoint x="642" y="87" as="targetPoint" />
          </mxGeometry>
        </mxCell>
      </root>
    </mxGraphModel>
  </diagram>
</mxfile>
